<?xml version="1.0" standalone="no"?>
<!DOCTYPE svg PUBLIC "-//W3C//DTD SVG 20010904//EN"
 "http://www.w3.org/TR/2001/REC-SVG-20010904/DTD/svg10.dtd">
<svg version="1.0" xmlns="http://www.w3.org/2000/svg"
 width="300.000000pt" height="300.000000pt" viewBox="0 0 300.000000 300.000000"
 preserveAspectRatio="xMidYMid meet">
<metadata>
Created by potrace 1.11, written by Peter Selinger 2001-2013
</metadata>
<g transform="translate(0.000000,300.000000) scale(0.100000,-0.100000)"
fill="#000000" stroke="none">
<path d="M1307 2473 c-3 -5 -8 -37 -12 -73 -4 -36 -9 -74 -11 -85 -3 -11 -5
-50 -6 -86 -1 -65 -2 -67 -35 -83 -30 -14 -32 -19 -27 -51 4 -28 2 -37 -13
-42 -47 -17 -203 -163 -203 -189 0 -7 -4 -14 -8 -16 -10 -4 -48 -93 -56 -133
-4 -19 -18 -36 -35 -47 -84 -47 -88 -168 -7 -203 27 -11 29 -17 31 -71 1 -33
6 -75 9 -94 15 -74 58 -256 63 -270 3 -8 7 -21 9 -29 1 -8 6 -26 10 -40 4 -14
8 -28 9 -31 2 -7 14 -58 21 -90 3 -14 8 -36 11 -49 3 -13 22 -38 41 -55 73
-64 131 -128 134 -149 3 -20 9 -22 75 -22 39 0 69 -3 67 -7 -3 -5 -11 -8 -17
-8 -26 0 -114 -49 -145 -81 -59 -58 -76 -111 -60 -182 8 -37 7 -39 -46 -88
-53 -48 -94 -117 -103 -171 l-4 -28 93 0 93 1 20 31 c11 17 29 37 41 44 18 13
22 10 49 -31 l28 -45 294 0 c242 0 297 3 309 14 8 8 14 17 14 20 0 5 46 75 55
84 4 4 53 -26 71 -43 6 -6 19 -25 28 -43 l17 -32 94 0 c84 0 94 2 88 17 -4 11
-3 14 6 9 9 -6 10 -4 3 10 -6 11 -24 49 -41 85 -29 62 -105 149 -131 149 -26
0 -37 27 -35 85 2 65 -18 110 -65 152 -55 49 -158 82 -268 86 -58 2 -63 4 -69
27 -3 14 -11 32 -17 40 -5 8 -7 12 -3 9 5 -4 20 4 34 17 14 13 34 24 44 24 9
0 19 4 21 9 2 5 41 27 88 48 l85 40 -2 64 c-1 35 -5 84 -8 109 -15 132 -18
185 -20 409 -4 345 -13 408 -72 525 -56 111 -197 215 -290 216 -12 0 -30 9
-40 19 -10 11 -31 21 -48 23 -27 3 -31 9 -53 73 -37 108 -83 225 -92 230 -5 3
-11 2 -13 -2z"/>
</g>
</svg>
